<?xml version="1.0" encoding="utf-8"?>
<!-- Generator: Adobe Illustrator 16.0.0, SVG Export Plug-In . SVG Version: 6.00 Build 0)  -->
<!DOCTYPE svg PUBLIC "-//W3C//DTD SVG 1.1//EN" "http://www.w3.org/Graphics/SVG/1.1/DTD/svg11.dtd">
<svg version="1.1" id="Layer_1" xmlns="http://www.w3.org/2000/svg" xmlns:xlink="http://www.w3.org/1999/xlink" x="0px" y="0px"
	 width="520px" height="520px" viewBox="0 0 520 520" enable-background="new 0 0 520 520" xml:space="preserve">
<path fill-rule="evenodd" clip-rule="evenodd" fill="#FEFEFE" d="M260,80.93c83.938,0,167.876,0.002,251.815-0.024
	c0.986-0.001,1.209,0.222,1.209,1.21c-0.025,100.585-0.025,201.17,0,301.755c0,0.988-0.221,1.211-1.209,1.211
	c-167.877-0.025-335.753-0.025-503.629,0c-0.987,0-1.211-0.222-1.211-1.21c0.026-100.585,0.026-201.17,0-301.756
	c0-0.988,0.222-1.211,1.21-1.21C92.125,80.932,176.063,80.93,260,80.93z"/>
<path fill-rule="evenodd" clip-rule="evenodd" fill="#37C7E5" d="M427.636,202.734c4.557-0.361,9.111-0.551,13.67-0.012
	c0.287,0.315,0.799,0.139,1.07,0.486c3.049,0.396,5.906,1.363,8.211,3.424c2.275,2.033,3.598,4.708,4.08,7.715
	c0.453,2.82,0.457,5.656-0.502,8.405c-1.375,3.935-3.838,6.891-7.752,8.521c0.045,0.319,0.34,0.369,0.551,0.507
	c3.688,2.406,5.016,6.169,5.949,10.197c1.121,4.824,1.936,9.728,3.535,14.433c0.24,0.71,0.012,0.836-0.621,0.833
	c-2.854-0.014-5.707-0.027-8.559,0.011c-0.67,0.009-0.85-0.279-1.041-0.851c-1.41-4.206-2.139-8.566-3.031-12.893
	c-0.498-2.414-0.965-4.906-3.078-6.567c-0.953-0.75-1.824-1.745-3.236-1.595c-0.422-0.255-0.91-0.016-1.344-0.182
	c-3.24-0.26-3.24-0.26-3.24,2.936c0,5.951-0.025,11.903,0.025,17.855c0.01,1.049-0.293,1.328-1.32,1.304
	c-2.799-0.068-5.602-0.023-8.402-0.023c-0.232-0.458-0.117-0.95-0.117-1.424c-0.006-16.896-0.01-33.792,0.01-50.687
	c0-0.555-0.33-1.264,0.447-1.63c1.025-0.099,2.051-0.198,3.078-0.298C426.472,202.748,427.171,203.145,427.636,202.734z"/>
<path fill-rule="evenodd" clip-rule="evenodd" fill="#37C7E5" d="M86.079,219.771c0.092-1.799,0.092-1.8,1.865-1.8
	c1.885,0,3.771,0.021,5.655-0.01c0.738-0.012,1.172,0.027,1.219,1.004c0.045,0.951,0.188,1.908,0.206,2.871
	c0.005,0.308-0.031,0.686,0.324,0.775c0.293,0.075,0.359-0.276,0.514-0.481c3.928-5.197,11.674-6.683,16.723-3.095
	c3.626,2.578,5.629,6.274,6.682,10.54c0.429,1.739,0.673,3.502,0.848,5.278c0.136,1.479,0.089,2.959,0.025,4.438
	c-0.246,2.872-0.616,5.712-1.694,8.424c-1.44,3.62-3.545,6.566-7.033,8.613c-3.406,1.998-6.813,2.062-10.434,1.121
	c-1.303-0.339-2.147-1.352-3.157-2.116c-0.471-0.357-0.872-0.806-1.539-1.433c0,1.442,0,2.563,0,3.682
	c0,4.652-0.025,9.306,0.021,13.957c0.009,0.95-0.196,1.306-1.224,1.273c-2.455-0.078-4.917-0.09-7.372,0.003
	c-1.152,0.043-1.349-0.373-1.346-1.419c0.035-12.465,0.033-24.931,0.016-37.396c-0.005-4.034-0.085-8.068-0.131-12.104
	C86.08,221.198,86.361,220.462,86.079,219.771z"/>
<path fill-rule="evenodd" clip-rule="evenodd" fill="#37C7E5" d="M126.672,221.855c0.011-0.438,0.036-0.877,0.032-1.315
	c-0.025-2.569-0.027-2.569,2.606-2.569c1.669,0,3.34,0.045,5.006-0.018c0.837-0.033,1.09,0.277,1.034,1.056
	c-0.087,1.226,0.414,2.395,0.22,3.829c0.82-0.783,1.543-1.316,2.069-2.002c1.668-2.174,3.957-3.154,6.557-3.524
	c3.21-0.458,6.365-0.18,9.043,1.778c2.992,2.188,4.887,5.24,6.052,8.754c1.301,3.927,1.592,7.977,1.306,12.052
	c-0.381,5.427-1.756,10.544-5.899,14.417c-3.672,3.432-8.004,4.648-12.926,3.192c-1.94-0.574-3.281-2.01-4.634-3.407
	c-0.659,0.251-0.328,0.817-0.33,1.218c-0.027,5.35-0.014,10.7-0.024,16.052c0,0.473,0.119,0.964-0.117,1.421
	c-2.765,0-5.532-0.056-8.294,0.026c-1.127,0.033-1.474-0.225-1.469-1.425c0.049-12.421,0.038-24.841,0.025-37.263
	c-0.003-3.199-0.071-6.399-0.109-9.6C126.678,223.643,126.937,222.734,126.672,221.855z"/>
<path fill-rule="evenodd" clip-rule="evenodd" fill="#37C7E5" d="M234.093,242.744c-1.889,0-3.779,0.048-5.665-0.022
	c-0.814-0.03-1.178,0.267-1.353,1.008c-0.972,4.109-1.972,8.212-2.933,12.323c-0.204,0.872-0.557,1.253-1.555,1.217
	c-2.544-0.092-5.094-0.06-7.641-0.016c-0.921,0.017-1.127-0.229-0.871-1.137c1.017-3.602,1.986-7.217,2.936-10.837
	c2.407-9.171,4.779-18.353,7.198-27.521c1.209-4.583,2.495-9.146,3.732-13.723c0.16-0.592,0.446-0.844,1.1-0.838
	c3.602,0.029,7.204,0.05,10.804-0.011c0.923-0.015,0.963,0.597,1.106,1.14c1.09,4.129,2.144,8.267,3.227,12.396
	c1.611,6.143,3.239,12.281,4.854,18.424c1.848,7.027,3.68,14.059,5.547,21.08c0.196,0.738,0.126,1.032-0.72,1.022
	c-2.942-0.032-5.886-0.008-8.828-0.019c-0.354-0.002-0.698,0.114-0.843-0.512c-0.927-3.986-1.906-7.962-2.922-11.928
	c-0.528-2.062-0.578-2.049-2.827-2.049C236.992,242.744,235.542,242.744,234.093,242.744z"/>
<path fill-rule="evenodd" clip-rule="evenodd" fill="#37C7E5" d="M80.345,257.238c-3.239,0-6.311-0.014-9.382,0.012
	c-0.627,0.006-0.911-0.175-1.067-0.821c-0.993-4.1-2.057-8.183-3.044-12.284c-0.24-0.996-0.632-1.451-1.758-1.428
	c-3.643,0.074-7.288,0.043-10.931,0.016c-0.81-0.007-1.2,0.146-1.409,1.078c-0.954,4.244-2.062,8.454-3.041,12.693
	c-0.151,0.656-0.417,0.742-0.957,0.74c-3.028-0.012-6.056-0.006-9.271-0.006c0.788-2.949,1.564-5.811,2.315-8.68
	c1.947-7.442,3.862-14.895,5.832-22.332c1.247-4.707,2.576-9.394,3.853-14.094c0.741-2.728,1.501-5.453,2.144-8.204
	c0.153-0.657,0.401-0.724,0.931-0.722c3.6,0.012,7.201,0.031,10.8-0.013c0.8-0.01,1.036,0.365,1.207,1.024
	c1.125,4.34,2.27,8.673,3.411,13.008c1.962,7.45,3.924,14.901,5.889,22.352c1.431,5.426,2.869,10.85,4.292,16.277
	C80.266,256.269,80.276,256.708,80.345,257.238z"/>
<path fill-rule="evenodd" clip-rule="evenodd" d="M390.718,233.471c0.555,0.363,1.156,0.593,1.826,0.629
	c0.465-0.129,0.801,0.066,1.072,0.425c0.555,0.364,1.158,0.593,1.826,0.63c0.465-0.13,0.801,0.066,1.072,0.424
	c0.408,0.707,1.119,0.797,1.826,0.895c0.465-0.131,0.801,0.065,1.074,0.424c0.555,0.363,1.158,0.588,1.824,0.631
	c0.465-0.131,0.801,0.064,1.074,0.424c0.555,0.362,1.158,0.588,1.824,0.632c0.467-0.134,0.803,0.063,1.074,0.423
	c0.797,0.646,1.93,0.518,2.73,1.282c0.381,0.364,0.383,0.474,0.234,0.898c-2.217,6.345-4.459,12.681-6.578,19.058
	c-0.893,2.687-1.797,5.37-2.707,8.052c-0.303,0.889-0.375,1.441-1.557,0.602c-1.082-0.77-2.561-1.008-3.867-1.436
	c-5.467-1.789-10.67-4.263-16.121-6.104c-1.758-0.593-3.461-1.503-5.262-2.089c-0.771-0.251-0.777-0.797-0.547-1.383
	c1.982-5.033,3.707-10.149,5.279-15.326c1.002-3.3,2.277-6.516,3.432-9.77c0.029-0.082,0.078-0.16,0.088-0.244
	c0.117-0.952,0.254-2.267,0.941-2.55c0.646-0.267,1.705,0.561,2.609,0.81c0.949,0.261,1.781,0.879,2.805,0.895
	c0.258,0.23,0.666,0.256,0.822,0.617c0.672,0.356,1.354,0.682,2.131,0.727C390.11,232.916,390.446,233.112,390.718,233.471z"/>
<path fill-rule="evenodd" clip-rule="evenodd" d="M404.167,194.773c3.059,0.631,5.719,1.801,8.041,4.117
	c3.025,3.021,4.352,6.663,5.166,10.65c0.146,1.228,0.141,2.455,0.004,3.684c-0.551,3.984-2.061,7.557-4.732,10.574
	c-1.33,1.504-3.148,2.366-4.889,3.336c-3.57,1.99-7.365,2.232-11.092,1c-1.922-0.635-3.893-1.598-5.473-3.048
	c-1.053-0.394-1.729-1.132-2.018-2.22c-1.918-2.209-3.082-4.758-3.662-7.631c-0.17-0.849-0.18-1.706-0.377-2.54
	c-0.125-0.788-0.133-1.576,0.004-2.364c0.184-3.252,1.131-6.291,2.914-8.991c2.324-3.521,5.645-5.696,9.779-6.604
	c0.242-0.217,0.596-0.236,0.828-0.47c0.164-0.019,0.328-0.037,0.492-0.056c1.316-0.141,2.631-0.138,3.947-0.002
	c0.078,0.041,0.16,0.067,0.248,0.077C403.583,194.514,403.948,194.52,404.167,194.773z"/>
<path fill-rule="evenodd" clip-rule="evenodd" fill="#37C7E5" d="M258.867,227.221c0.261-4.21,1.278-8.254,3.098-12.031
	c1.428-2.961,3.498-5.502,6.015-7.674c2.537-2.191,5.549-3.275,8.666-4.354c4.086-1.413,8.166-1.107,12.266-0.646
	c1.6,0.18,3.123,1.009,4.695,1.504c0.557,0.175,0.473,0.538,0.389,0.924c-0.527,2.42-1.057,4.838-1.598,7.254
	c-0.168,0.752-0.658,0.5-1.113,0.319c-1.498-0.593-3.066-0.903-4.645-1.185c-0.734-0.502-1.682,0.093-2.406-0.467
	c-0.078-0.009-0.156,0-0.23,0.027c-0.344,0.268-0.75,0.216-1.145,0.225c-0.428,0.031-0.887-0.1-1.26,0.232
	c-2.852,0.516-5.496,1.496-7.518,3.669c-2.504,2.693-3.967,5.93-4.502,9.542c-0.855,5.771-0.846,11.496,1.764,16.893
	c1.404,2.906,3.602,4.987,6.619,6.399c3.807,1.782,7.609,1.364,11.465,0.644c0.654-0.123,1.309-0.596,1.998-0.834
	c0.6-0.206,0.908-0.214,1.021,0.607c0.316,2.326,0.742,4.639,1.178,6.946c0.109,0.576-0.131,0.731-0.57,0.972
	c-2.223,1.217-4.662,1.631-7.115,1.754c-3.695,0.186-7.449,0.46-11.027-0.804c-2.908-1.026-5.816-2.229-8.077-4.37
	c-3.066-2.905-5.205-6.473-6.48-10.529c-0.994-3.156-1.523-6.387-1.609-9.691c-0.033-1.316-0.023-2.633-0.034-3.949
	C258.922,228.156,258.74,227.671,258.867,227.221z"/>
<path fill-rule="evenodd" clip-rule="evenodd" fill="#010101" d="M339.544,245.383c0.023-0.936,0.049-1.873,0.072-2.809
	c0.285-0.982-0.051-2.004,0.191-2.989c0.02-0.917,0.041-1.833,0.063-2.751c0.299-1-0.043-2.043,0.203-3.047
	c0.023-0.924,0.045-1.848,0.068-2.771c0.281-0.905-0.045-1.854,0.195-2.763c0.207-1.011-0.355-2.298,0.408-2.998
	c0.658-0.603,1.854-0.577,2.76-0.954c4.301-1.795,8.846-2.843,13.221-4.406c1.115-0.398,2.199-0.902,3.33-1.287
	c0.67-0.229,1.029-0.092,1.385,0.51c2.396,4.054,4.828,8.085,7.232,12.133c1.154,1.943,2.23,3.935,3.436,5.846
	c0.406,0.645,0.07,0.967-0.236,1.36c-1.359,1.749-2.662,3.554-3.902,5.374c-2.357,3.455-4.787,6.858-7.225,10.254
	c-1.75,2.436-1.891,2.448-4.609,1.266c-1.736-0.756-3.549-1.28-5.291-2.004c-2.18-0.905-4.307-1.938-6.564-2.664
	c-1.395-0.449-2.721-1.129-4.131-1.504c-0.703-0.188-0.74-0.549-0.797-1.057C339.632,247.224,339.308,246.284,339.544,245.383z"/>
<path fill-rule="evenodd" clip-rule="evenodd" fill="#37C7E5" d="M208.333,226.227c-0.015,2.369-0.076,4.74-0.022,7.107
	c0.022,0.965-0.22,1.277-1.233,1.266c-4.521-0.058-9.043,0.012-13.563-0.051c-1.148-0.016-1.554,0.215-1.54,1.477
	c0.071,6.628,0.005,13.258,0.06,19.886c0.009,1.118-0.319,1.39-1.394,1.354c-2.456-0.082-4.917-0.06-7.374-0.007
	c-0.825,0.018-1.027-0.246-1.026-1.044c0.021-17.34,0.022-34.679-0.003-52.019c-0.001-0.864,0.317-0.998,1.072-0.996
	c8.34,0.021,16.681,0.027,25.021-0.006c0.883-0.003,1.109,0.275,1.087,1.117c-0.053,2.15-0.064,4.303,0.004,6.452
	c0.03,0.932-0.254,1.177-1.174,1.168c-4.96-0.044-9.921,0.013-14.881-0.047c-1.079-0.013-1.411,0.247-1.386,1.36
	c0.093,4.21,0.082,8.422,0.109,12.633c0.404,0.254,0.852,0.129,1.277,0.13c4.581,0.011,9.162,0.001,13.743,0.017
	C207.517,226.025,207.983,225.82,208.333,226.227z"/>
<path fill-rule="evenodd" clip-rule="evenodd" fill="#37C7E5" d="M482.435,257.239c-2.811,0-5.621-0.042-8.43,0.022
	c-1.006,0.022-1.342-0.219-1.33-1.292c0.057-5.619-0.115-11.243,0.084-16.856c0.102-2.834-0.674-5.299-1.807-7.78
	c-3.57-7.831-7.129-15.669-10.621-23.536c-0.664-1.498-1.332-3.002-2.109-4.584c3.576,0,6.996,0.017,10.414-0.014
	c0.625-0.006,0.803,0.305,0.99,0.8c1.428,3.79,2.916,7.557,4.314,11.356c1.307,3.552,2.527,7.136,3.795,10.703
	c0.07,0.195,0.215,0.363,0.432,0.725c0.713-2.14,1.328-4.13,2.035-6.088c1.564-4.337,3.174-8.658,4.766-12.986
	c0.449-1.226,0.904-2.448,1.334-3.681c0.195-0.562,0.498-0.834,1.145-0.828c3.289,0.028,6.58,0.013,10.027,0.013
	c-0.732,1.603-1.389,3.104-2.094,4.581c-2.26,4.73-4.563,9.44-6.799,14.183c-2.004,4.252-3.941,8.537-5.908,12.807
	c-0.221,0.461-0.109,0.951-0.109,1.426c-0.01,6.535-0.004,13.071-0.012,19.607C482.55,256.29,482.667,256.781,482.435,257.239z"/>
<path fill-rule="evenodd" clip-rule="evenodd" fill="#37C7E5" d="M318.976,234.793c0,7.068-0.018,14.137,0.021,21.204
	c0.004,0.96-0.213,1.3-1.23,1.267c-2.369-0.078-4.744-0.098-7.111,0.005c-1.244,0.054-1.615-0.254-1.611-1.561
	c0.053-13.873,0.033-27.746,0.033-41.618c0-1.916,0-1.916-1.98-1.916c-3.117,0-6.234-0.029-9.35,0.018
	c-0.861,0.014-1.133-0.236-1.111-1.104c0.057-2.282,0.053-4.565,0.002-6.848c-0.018-0.81,0.227-1.044,1.037-1.042
	c10.932,0.023,21.863,0.022,32.795,0.002c0.748-0.002,0.979,0.221,0.965,0.967c-0.041,2.282-0.057,4.566,0.006,6.848
	c0.025,0.914-0.223,1.198-1.162,1.182c-3.334-0.057-6.672,0.019-10.008-0.047c-1.033-0.02-1.324,0.266-1.318,1.31
	C318.997,220.569,318.976,227.682,318.976,234.793z"/>
<path fill-rule="evenodd" clip-rule="evenodd" fill="#040404" d="M373.044,185.867c-0.104,1.234,0.119,2.439,0.332,3.646
	c0.182,0.448-0.045,0.951,0.186,1.393c0.023,0.326,0.045,0.652,0.068,0.978c0.211,0.435-0.057,0.939,0.203,1.366
	c0.021,0.336,0.045,0.671,0.066,1.006c0.178,0.464-0.023,0.977,0.184,1.436c-0.08,1.209,0.152,2.388,0.338,3.572
	c0.209,0.436-0.055,0.941,0.201,1.37c-0.01,1.937,0.262,3.843,0.59,5.745c0.223,0.526-0.07,1.116,0.199,1.637
	c0.125,3.554,0.744,7.064,1.016,10.686c-2.795-1.021-5.57-1.836-8.168-3.035c-3.471-1.602-7.18-2.553-10.643-4.113
	c-3.443-1.551-6.982-2.785-10.553-3.971c-0.572-0.191-1.279-0.48-0.387-1.337c2.625-2.522,5.162-5.132,7.688-7.756
	c1.584-1.646,3.107-3.394,4.834-4.878c2.398-2.063,4.334-4.561,6.701-6.654c1.441-1.276,2.57-2.916,4.205-4.029
	c0.652-0.445,0.756-1.359,1.445-1.803c0.215-0.139,0.367-0.399,0.674-0.271c0.311,0.127,0.283,0.431,0.277,0.675
	c-0.025,1.009,0.113,1.997,0.338,2.977C373.052,184.938,372.78,185.441,373.044,185.867z"/>
<path fill-rule="evenodd" clip-rule="evenodd" fill="#FCFCFC" d="M422.94,203.499c-0.424,0.298-0.396,0.741-0.395,1.185
	c0.004,17.388,0.004,34.775,0.008,52.164c0,0.131,0.031,0.262,0.047,0.392c-0.398-0.346-0.254-0.814-0.254-1.234
	c-0.008-17.058-0.01-34.114,0.01-51.173C422.356,204.354,421.997,203.609,422.94,203.499z"/>
<path fill-rule="evenodd" clip-rule="evenodd" fill="#FCFCFC" d="M482.435,257.239c0.018-6.974,0.031-13.948,0.061-20.922
	c0.002-0.512-0.156-1.056,0.178-1.534c0.008,7.119,0.016,14.238,0.018,21.357C482.69,256.521,482.8,256.939,482.435,257.239z"/>
<path fill-rule="evenodd" clip-rule="evenodd" fill="#FCFCFC" d="M136.667,272.788c0.018-5.933,0.036-11.865,0.054-17.799
	c0.001-0.349-0.101-0.744,0.03-1.035c0.157-0.351,0.293-0.024,0.387,0.144c-0.364,0.419-0.203,0.925-0.204,1.391
	c-0.012,5.311-0.003,10.622-0.015,15.933C136.919,271.882,137.094,272.397,136.667,272.788z"/>
<path fill-rule="evenodd" clip-rule="evenodd" fill="#FEFEFE" d="M208.333,226.227c-0.726-0.27-1.48-0.138-2.221-0.14
	c-4.26-0.014-8.521-0.001-12.781-0.017c-0.412-0.002-0.88,0.193-1.241-0.193c4.938,0,9.875-0.008,14.813,0.012
	C207.386,225.892,207.972,225.637,208.333,226.227z"/>
<path fill-rule="evenodd" clip-rule="evenodd" fill="#FEFEFE" d="M389.175,222.867c0.672,0.74,1.344,1.48,2.018,2.22
	C389.708,225.044,389.31,224.605,389.175,222.867z"/>
<path fill-rule="evenodd" clip-rule="evenodd" fill="#79D9ED" d="M284.233,210.865c0.803,0.154,1.762-0.502,2.406,0.467
	C285.837,211.18,284.888,211.781,284.233,210.865z"/>
<path fill-rule="evenodd" clip-rule="evenodd" fill="#FCFCFC" d="M120.139,239.292c-0.008-1.479-0.017-2.959-0.025-4.438
	C120.472,236.332,120.434,237.811,120.139,239.292z"/>
<path fill-rule="evenodd" clip-rule="evenodd" fill="#FCFCFC" d="M403.101,194.209c-1.316,0-2.631,0.001-3.947,0.002
	C400.47,193.842,401.784,193.843,403.101,194.209z"/>
<path fill-rule="evenodd" clip-rule="evenodd" fill="#FCFCFC" d="M417.378,213.225c0-1.229-0.002-2.455-0.004-3.684
	C417.735,210.769,417.731,211.996,417.378,213.225z"/>
<path fill-rule="evenodd" clip-rule="evenodd" fill="#7EDBEE" d="M427.636,202.734c-0.338,0.852-1.061,0.373-1.617,0.467
	C426.356,202.354,427.069,202.797,427.636,202.734z"/>
<path fill-rule="evenodd" clip-rule="evenodd" fill="#FCFCFC" d="M340.073,233.787c0.02,1.021,0.104,2.047-0.203,3.047
	C339.944,235.818,339.614,234.777,340.073,233.787z"/>
<path fill-rule="evenodd" clip-rule="evenodd" fill="#FCFCFC" d="M339.808,239.585c0.043,1.003,0.082,2.006-0.191,2.989
	C339.663,241.576,339.366,240.557,339.808,239.585z"/>
<path fill-rule="evenodd" clip-rule="evenodd" fill="#FCFCFC" d="M126.672,221.855c0.356,0.874,0.13,1.779,0.147,2.672
	C126.477,223.653,126.704,222.748,126.672,221.855z"/>
<path fill-rule="evenodd" clip-rule="evenodd" fill="#B2E9F5" d="M282.679,210.871c0.441,0.008,0.883,0.014,1.324,0.021
	c-0.24,0.816-0.881,0.393-1.369,0.444C282.505,211.168,282.513,211.012,282.679,210.871z"/>
<path fill-rule="evenodd" clip-rule="evenodd" fill="#FCFCFC" d="M340.337,228.253c0.029,0.927,0.096,1.857-0.195,2.763
	C340.206,230.095,339.876,229.146,340.337,228.253z"/>
<path fill-rule="evenodd" clip-rule="evenodd" fill="#FCFCFC" d="M339.544,245.383c0.037,0.92,0.076,1.84-0.191,2.738
	C339.407,247.208,339.091,246.27,339.544,245.383z"/>
<path fill-rule="evenodd" clip-rule="evenodd" fill="#FCFCFC" d="M385.14,210.332c-0.002,0.788-0.004,1.576-0.004,2.364
	C384.798,211.908,384.79,211.119,385.14,210.332z"/>
<path fill-rule="evenodd" clip-rule="evenodd" fill="#FEFEFE" d="M393.616,234.524c-0.385-0.073-0.766-0.155-1.072-0.425
	C393.3,233.23,393.423,233.966,393.616,234.524z"/>
<path fill-rule="evenodd" clip-rule="evenodd" fill="#FEFEFE" d="M396.515,235.578c-0.385-0.072-0.766-0.156-1.072-0.424
	C396.2,234.285,396.323,235.02,396.515,235.578z"/>
<path fill-rule="evenodd" clip-rule="evenodd" fill="#FEFEFE" d="M390.718,233.471c-0.385-0.074-0.766-0.156-1.072-0.426
	C390.401,232.178,390.524,232.912,390.718,233.471z"/>
<path fill-rule="evenodd" clip-rule="evenodd" fill="#FEFEFE" d="M399.415,236.896c-0.387-0.068-0.766-0.158-1.074-0.424
	C399.099,235.602,399.222,236.338,399.415,236.896z"/>
<path fill-rule="evenodd" clip-rule="evenodd" fill="#FEFEFE" d="M402.313,237.951c-0.387-0.069-0.764-0.159-1.074-0.424
	C401.997,236.656,402.12,237.391,402.313,237.951z"/>
<path fill-rule="evenodd" clip-rule="evenodd" fill="#FEFEFE" d="M405.212,239.006c-0.387-0.066-0.764-0.161-1.074-0.423
	C404.896,237.709,405.019,238.445,405.212,239.006z"/>
<path fill-rule="evenodd" clip-rule="evenodd" fill="#6BD5EB" d="M442.376,203.209c-0.422-0.02-0.938,0.168-1.07-0.486
	C441.759,202.671,442.228,202.588,442.376,203.209z"/>
<path fill-rule="evenodd" clip-rule="evenodd" fill="#73D8EC" d="M282.679,210.871c-0.014,0.155-0.029,0.311-0.043,0.467
	c-0.348,0.004-0.693,0.008-1.037,0.013C281.737,210.693,282.253,210.882,282.679,210.871z"/>
<path fill-rule="evenodd" clip-rule="evenodd" fill="#FCFCFC" d="M86.079,219.771c0.363,0.685,0.132,1.417,0.168,2.128
	C85.872,221.215,86.134,220.48,86.079,219.771z"/>
<path fill-rule="evenodd" clip-rule="evenodd" fill="#5D5D5D" d="M404.167,194.773c-0.43,0.1-0.719-0.036-0.818-0.487
	C403.776,194.188,404.122,194.229,404.167,194.773z"/>
<path fill-rule="evenodd" clip-rule="evenodd" fill="#FCFCFC" d="M375.411,208.016c-0.289-0.519-0.225-1.08-0.199-1.637
	C375.616,206.883,375.374,207.467,375.411,208.016z"/>
<path fill-rule="evenodd" clip-rule="evenodd" fill="#FCFCFC" d="M398.661,194.267c-0.152,0.374-0.4,0.583-0.828,0.47
	C397.894,194.198,398.288,194.25,398.661,194.267z"/>
<path fill-rule="evenodd" clip-rule="evenodd" fill="#FCFCFC" d="M373.833,193.25c-0.244-0.43-0.248-0.894-0.203-1.366
	C374.005,192.294,373.808,192.788,373.833,193.25z"/>
<path fill-rule="evenodd" clip-rule="evenodd" fill="#FCFCFC" d="M374.083,195.691c-0.27-0.451-0.238-0.941-0.184-1.436
	C374.271,194.695,374.069,195.207,374.083,195.691z"/>
<path fill-rule="evenodd" clip-rule="evenodd" fill="#FCFCFC" d="M374.622,200.634c-0.248-0.431-0.248-0.897-0.201-1.37
	C374.796,199.675,374.599,200.17,374.622,200.634z"/>
<path fill-rule="evenodd" clip-rule="evenodd" fill="#FCFCFC" d="M258.867,227.221c-0.006,0.464,0.137,0.945-0.156,1.377
	C258.724,228.135,258.54,227.648,258.867,227.221z"/>
<path fill-rule="evenodd" clip-rule="evenodd" fill="#FCFCFC" d="M373.044,185.867c-0.24-0.429-0.25-0.892-0.205-1.362
	C373.214,184.913,373.017,185.406,373.044,185.867z"/>
<path fill-rule="evenodd" clip-rule="evenodd" fill="#FCFCFC" d="M373.562,190.906c-0.207-0.445-0.217-0.916-0.186-1.393
	C373.739,189.938,373.548,190.436,373.562,190.906z"/>
<path fill-rule="evenodd" clip-rule="evenodd" fill="#FEFEFE" d="M387.515,232.318c-0.322-0.141-0.83-0.036-0.822-0.617
	C387.14,231.678,387.446,231.84,387.515,232.318z"/>
<path fill-rule="evenodd" clip-rule="evenodd" fill="#FCFCFC" d="M435.538,235.168c0.453,0.018,0.928-0.121,1.344,0.182
	C436.431,235.319,435.948,235.513,435.538,235.168z"/>
<path fill-rule="evenodd" clip-rule="evenodd" fill="#FEFEFE" d="M432.298,219.051c0.002-2.366,0.049-4.734-0.021-7.099
	c-0.031-0.997,0.387-1.339,1.277-1.366c1.656-0.051,3.322-0.238,4.969,0.007c2.359,0.351,5.535,2.335,6.209,5.263
	c0.893,3.881-0.094,7.857-2.738,9.762c-1.779,1.279-3.824,1.609-5.969,1.643c-3.727,0.06-3.727,0.087-3.727-3.607
	C432.298,222.118,432.298,220.584,432.298,219.051z"/>
<path fill-rule="evenodd" clip-rule="evenodd" fill="#FEFEFE" d="M96.321,237.739c0-1.493-0.029-2.985,0.006-4.478
	c0.075-3.209,2.464-7.055,5.452-7.541c2.291-0.373,4.448,0.441,5.849,2.301c2.23,2.958,2.469,6.37,2.508,9.859
	c0.024,2.164-0.217,4.301-0.937,6.342c-1.524,4.322-4.712,6.806-8.746,5.063c-2.808-1.213-3.952-3.824-4.113-6.805
	c-0.085-1.576-0.015-3.16-0.015-4.741C96.325,237.739,96.323,237.739,96.321,237.739z"/>
<path fill-rule="evenodd" clip-rule="evenodd" fill="#FEFEFE" d="M136.735,237.566c-0.075-1.589,0.026-3.295,0.174-5
	c0.229-2.635,2.407-6.346,5.43-6.871c2.225-0.386,4.506,0.547,5.846,2.348c1.594,2.142,2.188,4.59,2.408,7.129
	c0.277,3.205,0.187,6.437-1.019,9.473c-1.475,3.715-3.96,5.832-7.8,4.956c-2.566-0.585-4.624-3.499-4.883-6.784
	C136.755,241.107,136.695,239.402,136.735,237.566z"/>
<path fill-rule="evenodd" clip-rule="evenodd" fill="#FEFEFE" d="M234.157,212.172c0.707,3.289,1.37,6.59,2.132,9.867
	c0.912,3.919,1.887,7.824,2.889,11.722c0.219,0.851,0.116,1.116-0.827,1.098c-2.81-0.058-5.621-0.045-8.431-0.006
	c-0.881,0.012-1.116-0.147-0.876-1.108c1.478-5.946,3.029-11.878,4.203-17.896c0.243-1.242,0.476-2.486,0.714-3.73
	C234.026,212.135,234.091,212.153,234.157,212.172z"/>
<path fill-rule="evenodd" clip-rule="evenodd" fill="#FEFEFE" d="M54.466,234.836c1.869-7.611,3.787-14.992,5.378-22.475
	c0.795,3.61,1.557,7.229,2.394,10.828c0.822,3.539,1.718,7.06,2.584,10.587c0.12,0.489,0.48,1.064-0.491,1.063
	C61.086,234.831,57.841,234.836,54.466,234.836z"/>
</svg>
