<svg version="1" xmlns="http://www.w3.org/2000/svg" width="212" height="212" viewBox="0 0 159.000000 159.000000"><path d="M47.5 22.5C35.4 34.8 25.4 45.4 25.2 45.9c-.2.6.5 1.4 1.5 1.7 2 .6 17.9 6.7 36.3 13.8 17.4 6.6 16.3 6.5 15.6 2-.4-2.2-1.1-8.2-1.5-13.4-2.7-27.9-5.6-50-6.5-50-.6 0-11 10.1-23.1 22.5zM112.6 24.7c-7 2.1-15.6 10.8-17.9 18.2-3.5 10.9-1.5 22.3 5.4 31 13.2 16.5 36.7 13.4 47.1-6.2 1.9-3.5 2.3-5.8 2.3-13.7 0-8.4-.3-10.1-2.7-14.5-3.5-6.6-8.1-10.8-15.1-13.9-6.5-2.9-11.7-3.2-19.1-.9zM32 71.8l-16.5 5.7-.6 6.5c-.4 3.6-.9 13-1.3 21l-.7 14.5 16.8 6.7c11.8 4.6 17.3 6.4 18.4 5.7 1.8-.9 23.2-30.8 23.2-32.4 0-.6-4.3-8.3-9.7-17.3C54.9 71 51.4 66 50.2 66.1c-.9 0-9.1 2.6-18.2 5.7zM85.5 87.2c-.3.7-3.6 10.5-7.4 21.8-3.8 11.3-7.4 22-8.1 23.8-.8 2.1-.9 3.7-.3 4.3.9.9 32.6 13.6 39.8 15.9 2.2.7 4.6 1.7 5.3 2.3.8.6 1.6.6 2.1.1 1-1.1 17.1-48.4 17.1-50.2 0-1.4-2-2.3-19-8.8-6.9-2.6-15.6-6-19.4-7.5-7.5-3.2-9.4-3.5-10.1-1.7z"/></svg>